<svg width="400" height="400" viewBox="0 0 400 400" fill="none" xmlns="http://www.w3.org/2000/svg">
<g filter="url(#filter0_d_13_261)">
<g clip-path="url(#clip0_13_261)">
<rect width="400" height="400" fill="#FDB623"/>
<path d="M0 12.5C0 9.18479 1.31696 6.00537 3.66117 3.66117C6.00537 1.31696 9.18479 0 12.5 0L87.5 0C90.8152 0 93.9946 1.31696 96.3388 3.66117C98.683 6.00537 100 9.18479 100 12.5C100 15.8152 98.683 18.9946 96.3388 21.3388C93.9946 23.683 90.8152 25 87.5 25H46C34.402 25 25 34.402 25 46V87.5C25 90.8152 23.683 93.9946 21.3388 96.3388C18.9946 98.683 15.8152 100 12.5 100C9.18479 100 6.00537 98.683 3.66117 96.3388C1.31696 93.9946 0 90.8152 0 87.5V12.5ZM300 12.5C300 9.18479 301.317 6.00537 303.661 3.66117C306.005 1.31696 309.185 0 312.5 0L387.5 0C390.815 0 393.995 1.31696 396.339 3.66117C398.683 6.00537 400 9.18479 400 12.5V87.5C400 90.8152 398.683 93.9946 396.339 96.3388C393.995 98.683 390.815 100 387.5 100C384.185 100 381.005 98.683 378.661 96.3388C376.317 93.9946 375 90.8152 375 87.5V46C375 34.402 365.598 25 354 25H312.5C309.185 25 306.005 23.683 303.661 21.3388C301.317 18.9946 300 15.8152 300 12.5ZM12.5 300C15.8152 300 18.9946 301.317 21.3388 303.661C23.683 306.005 25 309.185 25 312.5V354C25 365.598 34.402 375 46 375H87.5C90.8152 375 93.9946 376.317 96.3388 378.661C98.683 381.005 100 384.185 100 387.5C100 390.815 98.683 393.995 96.3388 396.339C93.9946 398.683 90.8152 400 87.5 400H12.5C9.18479 400 6.00537 398.683 3.66117 396.339C1.31696 393.995 0 390.815 0 387.5V312.5C0 309.185 1.31696 306.005 3.66117 303.661C6.00537 301.317 9.18479 300 12.5 300ZM387.5 300C390.815 300 393.995 301.317 396.339 303.661C398.683 306.005 400 309.185 400 312.5V387.5C400 390.815 398.683 393.995 396.339 396.339C393.995 398.683 390.815 400 387.5 400H312.5C309.185 400 306.005 398.683 303.661 396.339C301.317 393.995 300 390.815 300 387.5C300 384.185 301.317 381.005 303.661 378.661C306.005 376.317 309.185 375 312.5 375H354C365.598 375 375 365.598 375 354V312.5C375 309.185 376.317 306.005 378.661 303.661C381.005 301.317 384.185 300 387.5 300ZM100 112.5C100 105.596 105.596 100 112.5 100C119.404 100 125 105.596 125 112.5C125 119.404 119.404 125 112.5 125C105.596 125 100 119.404 100 112.5Z" fill="#333333"/>
<path d="M175 50H50V175H175V50ZM75 75H150V150H75V75ZM125 275H100V300H125V275Z" fill="white"/>
<path d="M175 225H50V350H175V225ZM75 250H150V325H75V250ZM275 100H300V125H275V100Z" fill="white"/>
<path d="M225 50H350V175H225V50ZM250 75V150H325V75H250ZM200 200V250H225V275H200V300H250V250H275V300H300V275H350V250H275V200H200ZM250 250H225V225H250V250ZM350 300H325V325H275V350H350V300ZM250 350V325H200V350H250Z" fill="white"/>
<path d="M300 225H350V200H300V225Z" fill="white"/>
<circle cx="112.222" cy="112.222" r="14.4444" fill="white"/>
<path d="M7.77783 200L395.556 196.667" stroke="#333333" stroke-width="7" stroke-linecap="round" stroke-linejoin="round"/>
</g>
</g>
<defs>
<filter id="filter0_d_13_261" x="0" y="0" width="400" height="400" filterUnits="userSpaceOnUse" color-interpolation-filters="sRGB">
<feFlood flood-opacity="0" result="BackgroundImageFix"/>
<feColorMatrix in="SourceAlpha" type="matrix" values="0 0 0 0 0 0 0 0 0 0 0 0 0 0 0 0 0 0 127 0" result="hardAlpha"/>
<feOffset/>
<feComposite in2="hardAlpha" operator="out"/>
<feColorMatrix type="matrix" values="0 0 0 0 0 0 0 0 0 0 0 0 0 0 0 0 0 0 0.45 0"/>
<feBlend mode="normal" in2="BackgroundImageFix" result="effect1_dropShadow_13_261"/>
<feBlend mode="normal" in="SourceGraphic" in2="effect1_dropShadow_13_261" result="shape"/>
</filter>
<clipPath id="clip0_13_261">
<rect width="400" height="400" fill="white"/>
</clipPath>
</defs>
</svg>
